<svg data-v-423bf9ae="" xmlns="http://www.w3.org/2000/svg" viewBox="0 0 600.04775356935 163" class="iconAbove"><!----><!----><!----><g data-v-423bf9ae="" id="8157bb7e-52c8-40f6-a099-e94b3d079968" fill="#371213" transform="matrix(4.777070045471191,0,0,4.777070045471191,-1.6719881296157837,100.80254364013672)"><path d="M3.93 7.14L3.93 4.06L4.30 4.06C5.32 4.06 5.81 4.62 5.81 5.60C5.81 6.58 5.32 7.14 4.30 7.14ZM4.30 10.50C7.25 10.50 9.45 8.44 9.45 5.60C9.45 2.76 7.25 0.70 4.30 0.70L0.35 0.70L0.35 10.50ZM14.11 8.48C13.34 8.48 12.88 8.09 12.70 7.60L16.90 7.60L16.90 7.10C16.90 5.14 15.61 3.60 13.68 3.60C11.56 3.60 10.01 5.15 10.01 7.10C10.01 9.04 11.56 10.61 13.68 10.61C14.43 10.61 15.40 10.42 15.97 10.08L15.97 7.92C15.53 8.26 14.76 8.48 14.11 8.48ZM12.75 6.19C12.89 5.88 13.16 5.66 13.68 5.66C14.01 5.66 14.31 5.92 14.41 6.19ZM24.36 3.74L21.42 3.74L20.62 6.61L19.84 3.74L16.90 3.74L19.14 10.50L22.12 10.50ZM24.91 5.60C24.91 8.44 27.09 10.72 30.04 10.72C33.00 10.72 35.20 8.44 35.20 5.60C35.20 2.76 33.00 0.46 30.04 0.46C27.09 0.46 24.91 2.76 24.91 5.60ZM28.55 5.60C28.55 4.62 29.02 3.82 30.04 3.82C31.07 3.82 31.56 4.62 31.56 5.60C31.56 6.58 31.07 7.36 30.04 7.36C29.02 7.36 28.55 6.58 28.55 5.60ZM38.75 3.75L35.84 3.75L35.84 13.02L38.75 13.02L38.75 10.05C39.17 10.47 39.75 10.68 40.32 10.68C41.93 10.68 43.23 9.11 43.23 7.13C43.23 5.12 41.93 3.64 40.32 3.64C39.75 3.64 39.16 3.79 38.75 4.23ZM38.74 7.13C38.74 6.58 38.96 6.17 39.48 6.17C39.98 6.17 40.22 6.58 40.22 7.13C40.22 7.66 39.98 8.09 39.48 8.09C38.96 8.09 38.74 7.66 38.74 7.13ZM45.65 8.58C44.86 8.58 44.31 8.22 43.89 7.83L43.89 9.95C44.59 10.58 45.61 10.65 46.20 10.65C47.87 10.65 49.34 9.81 49.34 8.08C49.34 7.35 48.89 6.75 48.29 6.51C47.49 6.17 47.05 6.27 47.05 5.91C47.05 5.70 47.45 5.67 47.54 5.67C47.87 5.67 48.30 5.75 49.07 6.26L49.07 4.30C48.24 3.70 47.42 3.61 46.62 3.61C45.47 3.61 43.78 4.12 43.78 5.87C43.78 8.19 46.27 7.66 46.27 8.29C46.27 8.44 46.14 8.58 45.65 8.58ZM61.39 6.16C61.14 6.85 60.45 7.36 59.50 7.36C58.31 7.36 57.75 6.58 57.75 5.60C57.75 4.61 58.31 3.81 59.50 3.81C60.51 3.81 60.98 4.31 61.39 4.72C61.39 4.73 61.39 1.13 61.39 1.13C60.69 0.71 59.85 0.46 58.95 0.46C56.17 0.46 54.11 2.76 54.11 5.60C54.11 8.44 56.17 10.72 58.95 10.72C59.85 10.72 60.69 10.49 61.39 10.07C61.39 10.11 61.39 6.16 61.39 6.16ZM62.01 7.13C62.01 9.09 63.64 10.65 65.69 10.65C67.73 10.65 69.38 9.09 69.38 7.13C69.38 5.17 67.73 3.58 65.69 3.58C63.64 3.58 62.01 5.17 62.01 7.13ZM64.95 7.13C64.95 6.61 65.17 6.17 65.69 6.17C66.19 6.17 66.44 6.61 66.44 7.13C66.44 7.66 66.19 8.06 65.69 8.06C65.17 8.06 64.95 7.66 64.95 7.13ZM76.44 4.30C76.13 3.86 75.66 3.60 74.94 3.60C73.70 3.60 73.30 4.05 72.95 4.24L72.95 3.74L70.01 3.74L70.01 10.50L72.95 10.50L72.95 7.28C72.95 6.85 73.05 6.34 73.61 6.34C73.84 6.34 74.07 6.57 74.07 6.82L74.07 10.50L77.01 10.50L77.01 7.28C77.01 6.85 77.11 6.34 77.67 6.34C77.90 6.34 78.13 6.57 78.13 6.82L78.13 10.50L81.07 10.50L81.07 6.82C81.07 5.24 80.56 3.60 78.81 3.60C77.91 3.60 77.18 3.84 76.44 4.30ZM88.19 4.30C87.88 3.86 87.40 3.60 86.69 3.60C85.44 3.60 85.05 4.05 84.70 4.24L84.70 3.74L81.76 3.74L81.76 10.50L84.70 10.50L84.70 7.28C84.70 6.85 84.80 6.34 85.36 6.34C85.58 6.34 85.82 6.57 85.82 6.82L85.82 10.50L88.76 10.50L88.76 7.28C88.76 6.85 88.86 6.34 89.42 6.34C89.64 6.34 89.88 6.57 89.88 6.82L89.88 10.50L92.82 10.50L92.82 6.82C92.82 5.24 92.30 3.60 90.55 3.60C89.66 3.60 88.93 3.84 88.19 4.30ZM97.55 3.75L97.55 6.97C97.55 7.41 97.45 7.91 96.89 7.91C96.67 7.91 96.43 7.69 96.43 7.43L96.43 3.75L93.49 3.75L93.49 7.43C93.49 9.02 93.81 10.65 95.56 10.65C96.81 10.65 97.20 10.21 97.55 10.01L97.55 10.51L100.49 10.51L100.49 3.75ZM104.13 10.50L104.13 7.28C104.13 6.85 104.23 6.34 104.79 6.34C105.01 6.34 105.25 6.57 105.25 6.82L105.25 10.50L108.19 10.50L108.19 6.82C108.19 5.24 107.87 3.60 106.12 3.60C104.87 3.60 104.48 4.05 104.13 4.24L104.13 3.74L101.19 3.74L101.19 10.50ZM109.12 10.50L109.12 3.74C109.12 3.74 112.06 3.74 112.06 3.74L112.06 10.50ZM108.84 1.90C108.84 2.67 109.61 3.33 110.59 3.33C111.55 3.33 112.32 2.67 112.32 1.90C112.32 1.12 111.55 0.46 110.59 0.46C109.61 0.46 108.84 1.12 108.84 1.90ZM117.94 10.19C117.94 10.19 117.94 7.88 117.94 7.91C117.70 7.98 117.35 8.02 117.11 8.02C116.83 8.02 116.83 7.87 116.83 7.57C116.83 7.57 116.83 6.15 116.83 6.15L117.94 6.15L117.94 3.74L116.83 3.74L116.83 1.95L113.89 1.95L113.89 3.74L112.88 3.74L112.88 6.15L113.89 6.15C113.89 6.15 113.89 7.57 113.89 7.57C113.89 9.98 114.84 10.50 116.56 10.50C117.04 10.50 117.49 10.36 117.94 10.19ZM122.89 13.02L125.96 3.74L123.02 3.74L122.22 6.90L121.44 3.74L118.50 3.74L120.99 10.50L120.26 13.02Z"></path></g><defs data-v-423bf9ae=""><linearGradient data-v-423bf9ae="" gradientTransform="rotate(25)" id="3bf5bcc9-eb6b-4b5e-a892-d55faf741689" x1="0%" y1="0%" x2="100%" y2="0%"><stop data-v-423bf9ae="" offset="0%" style="stop-color: rgb(233, 0, 127); stop-opacity: 1;"></stop><stop data-v-423bf9ae="" offset="100%" style="stop-color: rgb(254, 161, 52); stop-opacity: 1;"></stop></linearGradient></defs><g data-v-423bf9ae="" id="511b2ad4-ffcd-4887-9138-61899c7c9008" transform="matrix(2.4878597259521484,0,0,2.4878597259521484,237.9394989013672,-16.284461975097656)" stroke="none" fill="url(#3bf5bcc9-eb6b-4b5e-a892-d55faf741689)"><path d="M35.594 11.641V7.914c0-.89-1.077-1.337-1.707-.707L27.3 13.793a1 1 0 0 0 0 1.414l6.586 6.586c.63.63 1.707.184 1.707-.707v-3.718c4.167.051 7.542 3.453 7.542 7.632 0 4.21-3.425 7.637-7.636 7.637S27.864 29.21 27.864 25c0-7.37-5.995-13.363-13.364-13.363C7.131 11.637 1.136 17.63 1.136 25c0 7.316 5.912 13.27 13.208 13.355v3.73c0 .892 1.077 1.338 1.707.708l6.586-6.586a1 1 0 0 0 0-1.414l-6.586-6.586c-.63-.63-1.707-.184-1.707.707v3.715c-4.139-.085-7.48-3.47-7.48-7.63 0-4.21 3.425-7.636 7.636-7.636 4.21 0 7.636 3.426 7.636 7.637 0 7.37 5.995 13.363 13.364 13.363 7.369 0 13.364-5.994 13.364-13.363 0-7.337-5.945-13.307-13.27-13.359z"></path><path d="M35.594 11.641V7.914c0-.89-1.077-1.337-1.707-.707L27.3 13.793a1 1 0 0 0 0 1.414l6.586 6.586c.63.63 1.707.184 1.707-.707v-3.718c4.167.051 7.542 3.453 7.542 7.632 0 4.21-3.425 7.637-7.636 7.637S27.864 29.21 27.864 25c0-7.37-5.995-13.363-13.364-13.363C7.131 11.637 1.136 17.63 1.136 25c0 7.316 5.912 13.27 13.208 13.355v3.73c0 .892 1.077 1.338 1.707.708l6.586-6.586a1 1 0 0 0 0-1.414l-6.586-6.586c-.63-.63-1.707-.184-1.707.707v3.715c-4.139-.085-7.48-3.47-7.48-7.63 0-4.21 3.425-7.636 7.636-7.636 4.21 0 7.636 3.426 7.636 7.637 0 7.37 5.995 13.363 13.364 13.363 7.369 0 13.364-5.994 13.364-13.363 0-7.337-5.945-13.307-13.27-13.359z"></path></g><!----></svg>